<svg xmlns="http://www.w3.org/2000/svg" version="1.1" xmlns:xlink="http://www.w3.org/1999/xlink" xmlns:svgjs="http://svgjs.dev/svgjs" width="1000" height="176" viewBox="0 0 1000 176"><g transform="matrix(1,0,0,1,-0.6060606060606233,-0.442171801434597)"><svg viewBox="0 0 396 70" data-background-color="#ffffff" preserveAspectRatio="xMidYMid meet" height="176" width="1000" xmlns="http://www.w3.org/2000/svg" xmlns:xlink="http://www.w3.org/1999/xlink"><g id="tight-bounds" transform="matrix(1,0,0,1,0.2400000000000091,0.17586378466148744)"><svg viewBox="0 0 395.52 69.64827243067703" height="69.64827243067703" width="395.52"><g><svg viewBox="0 0 498.24487246084095 87.73739536392743" height="69.64827243067703" width="395.52"><g transform="matrix(1,0,0,1,102.72487246084097,12.125790531483464)"><svg viewBox="0 0 395.52 63.485814300960506" height="63.485814300960506" width="395.52"><g id="textblocktransform"><svg viewBox="0 0 395.52 63.485814300960506" height="63.485814300960506" width="395.52" id="textblock"><g><svg viewBox="0 0 395.52 63.485814300960506" height="63.485814300960506" width="395.52"><g transform="matrix(1,0,0,1,0,0)"><svg width="395.52" viewBox="2.75 -37.1 234.23 37.6" height="63.485814300960506" data-palette-color="#1098ad"><path d="M3.8 0L3.8 0Q2.75 0 2.75-1L2.75-1 2.75-25.55Q2.75-26.5 3.55-26.5L3.55-26.5 9.55-26.5Q10.3-26.5 10.3-25.65L10.3-25.65 10.3-23.2Q10.3-22.9 10.48-22.8 10.65-22.7 10.9-23L10.9-23Q12.2-24.2 13.5-25.1 14.8-26 16.25-26.53 17.7-27.05 19.25-27.05L19.25-27.05Q21.95-27.05 23.78-25.78 25.6-24.5 26.35-22.4L26.35-22.4Q26.45-22.2 26.63-22.23 26.8-22.25 27-22.45L27-22.45Q28.2-23.75 29.63-24.78 31.05-25.8 32.65-26.4 34.25-27 35.8-27L35.8-27Q39.3-27 41.38-24.85 43.45-22.7 43.45-18.95L43.45-18.95 43.45-1.2Q43.45 0 42.25 0L42.25 0 36.7 0Q36.2 0 35.98-0.23 35.75-0.45 35.75-1L35.75-1 35.75-17.9Q35.75-19.6 34.85-20.53 33.95-21.45 32.3-21.45L32.3-21.45Q31.35-21.45 30.45-21.05 29.55-20.65 28.8-20.1 28.05-19.55 27.5-18.9L27.5-18.9Q27.15-18.55 27.05-18.23 26.95-17.9 26.95-17.5L26.95-17.5 26.95-1.2Q26.95 0 25.75 0L25.75 0 20.25 0Q19.75 0 19.53-0.23 19.3-0.45 19.3-1L19.3-1 19.3-17.9Q19.3-19.6 18.4-20.53 17.5-21.45 15.8-21.45L15.8-21.45Q14.3-21.45 13.05-20.68 11.8-19.9 10.45-18.35L10.45-18.35 10.45-1.15Q10.45 0 9.15 0L9.15 0 3.8 0ZM55.45-11L55.45-11Q55.45-9.15 56.32-7.73 57.2-6.3 58.67-5.53 60.15-4.75 62-4.75L62-4.75Q63.8-4.75 65.32-5.53 66.85-6.3 68.4-8.1L68.4-8.1Q68.6-8.3 68.75-8.33 68.9-8.35 69.3-8.15L69.3-8.15 72.9-6.65Q73.6-6.35 73.05-5.65L73.05-5.65Q71.45-3.35 69.7-2 67.95-0.65 65.82-0.08 63.7 0.5 61.05 0.5L61.05 0.5Q57.15 0.5 54.1-1.2 51.05-2.9 49.27-5.93 47.5-8.95 47.5-12.85L47.5-12.85Q47.5-17.15 49.32-20.33 51.15-23.5 54.2-25.25 57.25-27 60.9-27L60.9-27Q64.75-27 67.65-25.33 70.55-23.65 72.22-20.55 73.9-17.45 73.9-13L73.9-13Q73.9-12.45 73.8-12.15 73.7-11.85 73.05-11.8L73.05-11.8 56.05-11.8Q55.75-11.8 55.6-11.6 55.45-11.4 55.45-11L55.45-11ZM55.55-16.05L65.5-16Q66.05-16 66.2-16.13 66.35-16.25 66.35-16.7L66.35-16.7Q66.35-17.95 65.77-19.25 65.2-20.55 64.07-21.43 62.95-22.3 61.2-22.3L61.2-22.3Q59.55-22.3 58.25-21.5 56.95-20.7 56.25-19.28 55.55-17.85 55.55-16.05L55.55-16.05ZM79.05 0L79.05 0Q78 0 78-1L78-1 78-25.55Q78-26.5 78.8-26.5L78.8-26.5 84.8-26.5Q85.55-26.5 85.55-25.65L85.55-25.65 85.55-23.2Q85.55-22.9 85.72-22.8 85.9-22.7 86.15-23L86.15-23Q87.45-24.2 88.75-25.1 90.05-26 91.5-26.53 92.95-27.05 94.5-27.05L94.5-27.05Q97.2-27.05 99.02-25.78 100.84-24.5 101.59-22.4L101.59-22.4Q101.7-22.2 101.87-22.23 102.05-22.25 102.25-22.45L102.25-22.45Q103.45-23.75 104.87-24.78 106.3-25.8 107.9-26.4 109.5-27 111.05-27L111.05-27Q114.55-27 116.62-24.85 118.7-22.7 118.7-18.95L118.7-18.95 118.7-1.2Q118.7 0 117.5 0L117.5 0 111.95 0Q111.45 0 111.22-0.23 111-0.45 111-1L111-1 111-17.9Q111-19.6 110.09-20.53 109.2-21.45 107.55-21.45L107.55-21.45Q106.59-21.45 105.7-21.05 104.8-20.65 104.05-20.1 103.3-19.55 102.75-18.9L102.75-18.9Q102.4-18.55 102.3-18.23 102.2-17.9 102.2-17.5L102.2-17.5 102.2-1.2Q102.2 0 101 0L101 0 95.5 0Q95 0 94.77-0.23 94.55-0.45 94.55-1L94.55-1 94.55-17.9Q94.55-19.6 93.65-20.53 92.75-21.45 91.05-21.45L91.05-21.45Q89.55-21.45 88.3-20.68 87.05-19.9 85.7-18.35L85.7-18.35 85.7-1.15Q85.7 0 84.4 0L84.4 0 79.05 0ZM136.14 0.5L136.14 0.5Q132.19 0.5 129.17-1.25 126.14-3 124.44-6.08 122.74-9.15 122.74-13.1L122.74-13.1Q122.74-17.25 124.49-20.38 126.24-23.5 129.29-25.25 132.34-27 136.19-27L136.19-27Q140.24-27 143.24-25.23 146.24-23.45 147.92-20.33 149.59-17.2 149.59-13.15L149.59-13.15Q149.59-9.15 147.89-6.08 146.19-3 143.17-1.25 140.14 0.5 136.14 0.5L136.14 0.5ZM136.19-4.6L136.19-4.6Q138.04-4.6 139.29-5.58 140.54-6.55 141.17-8.5 141.79-10.45 141.79-13.25L141.79-13.25Q141.79-16.2 141.17-18.13 140.54-20.05 139.29-21.05 138.04-22.05 136.19-22.05L136.19-22.05Q134.39-22.05 133.12-21.05 131.84-20.05 131.19-18.13 130.54-16.2 130.54-13.25L130.54-13.25Q130.54-10.4 131.19-8.47 131.84-6.55 133.12-5.58 134.39-4.6 136.19-4.6L136.19-4.6ZM161.59-25.65L161.59-1.2Q161.59-0.55 161.29-0.28 160.99 0 160.24 0L160.24 0 154.99 0Q154.34 0 154.12-0.25 153.89-0.5 153.89-1.05L153.89-1.05 153.89-25.55Q153.89-26.5 154.69-26.5L154.69-26.5 160.84-26.5Q161.59-26.5 161.59-25.65L161.59-25.65ZM161.69-36.15L161.69-30.95Q161.69-29.7 160.34-29.7L160.34-29.7 154.94-29.7Q154.29-29.7 154.07-30 153.84-30.3 153.84-30.85L153.84-30.85 153.84-36.1Q153.84-37.1 154.69-37.1L154.69-37.1 160.89-37.1Q161.69-37.1 161.69-36.15L161.69-36.15ZM183.49-19.6L183.49-19.6Q182.64-20.7 181.19-21.5 179.74-22.3 177.64-22.3L177.64-22.3Q175.79-22.3 174.51-21.58 173.24-20.85 173.24-19.6L173.24-19.6Q173.24-18.95 173.74-18.38 174.24-17.8 176.04-17.35L176.04-17.35 181.79-15.95Q185.94-15 187.69-12.85 189.44-10.7 189.44-8.05L189.44-8.05Q189.44-5.35 187.91-3.45 186.39-1.55 183.69-0.53 180.99 0.5 177.49 0.5L177.49 0.5Q173.04 0.5 169.94-1.07 166.84-2.65 165.59-5L165.59-5Q165.39-5.35 165.39-5.68 165.39-6 165.69-6.15L165.69-6.15 169.09-7.9Q169.59-8.15 169.86-8.13 170.14-8.1 170.34-7.85L170.34-7.85Q170.99-6.95 171.89-6.15 172.79-5.35 174.14-4.88 175.49-4.4 177.54-4.45L177.54-4.45Q178.94-4.45 180.06-4.78 181.19-5.1 181.84-5.73 182.49-6.35 182.49-7.2L182.49-7.2Q182.49-8.05 181.79-8.68 181.09-9.3 179.19-9.75L179.19-9.75 174.04-10.85Q170.29-11.7 168.36-13.53 166.44-15.35 166.44-18.3L166.44-18.3Q166.44-20.85 167.76-22.8 169.09-24.75 171.64-25.88 174.19-27 177.74-27L177.74-27Q181.54-27 184.31-25.6 187.09-24.2 188.29-22.25L188.29-22.25Q188.49-21.95 188.59-21.63 188.69-21.3 188.24-21.05L188.24-21.05 184.64-19.3Q184.29-19.15 184.01-19.23 183.74-19.3 183.49-19.6L183.49-19.6ZM209.24-21.2L203.94-21.2Q203.39-21.2 203.39-20.6L203.39-20.6 203.39-8.55Q203.39-6.85 204.19-6.13 204.99-5.4 206.74-5.4L206.74-5.4 209.44-5.4Q209.79-5.4 209.99-5.15 210.19-4.9 210.19-4.55L210.19-4.55 210.14-1.5Q210.14-0.55 209.04-0.3L209.04-0.3Q208.14-0.2 207.11-0.13 206.09-0.05 205.06-0.03 204.04 0 203.09 0L203.09 0Q199.69 0 197.69-1.63 195.69-3.25 195.69-6.45L195.69-6.45 195.69-20.45Q195.69-21.2 195.04-21.2L195.04-21.2 191.99-21.2Q191.04-21.2 191.04-22.05L191.04-22.05 191.04-25.75Q191.04-26.5 191.94-26.5L191.94-26.5 195.39-26.5Q195.84-26.5 195.89-27.05L195.89-27.05 196.59-34.65Q196.64-35.5 197.34-35.5L197.34-35.5 202.79-35.5Q203.59-35.5 203.59-34.55L203.59-34.55 203.59-27.05Q203.59-26.55 204.09-26.55L204.09-26.55 209.34-26.55Q210.24-26.55 210.24-25.75L210.24-25.75 210.24-22.05Q210.24-21.2 209.24-21.2L209.24-21.2ZM228.63-2.55L228.63-2.55Q227.08-1.15 225.16-0.33 223.23 0.5 220.73 0.5L220.73 0.5Q216.93 0.5 214.76-1.55 212.58-3.6 212.58-6.8L212.58-6.8Q212.58-9.6 214.33-11.7 216.08-13.8 219.33-14.98 222.58-16.15 227.08-16.25L227.08-16.25 228.83-16.4Q229.13-16.4 229.38-16.55 229.63-16.7 229.63-17.1L229.63-17.1 229.63-18.15Q229.63-20.05 228.53-21.13 227.43-22.2 225.38-22.2L225.38-22.2Q223.88-22.2 222.51-21.53 221.13-20.85 220.18-19.2L220.18-19.2Q220.03-18.85 219.83-18.75 219.63-18.65 219.08-18.75L219.08-18.75 214.08-19.9Q213.78-20 213.66-20.23 213.53-20.45 213.83-21.2L213.83-21.2Q215.08-24.15 218.16-25.58 221.23-27 225.73-27L225.73-27Q229.88-27 232.33-25.95 234.78-24.9 235.88-23.03 236.98-21.15 236.98-18.65L236.98-18.65 236.98-1.1Q236.98-0.5 236.78-0.25 236.58 0 236.03 0L236.03 0 230.88 0Q230.33 0 230.11-0.4 229.88-0.8 229.83-1.4L229.83-1.4 229.73-2.5Q229.63-3.4 228.63-2.55L228.63-2.55ZM229.63-11.8L229.63-11.8Q229.63-12.65 228.88-12.65L228.88-12.65 227.48-12.55Q226.18-12.5 224.88-12.18 223.58-11.85 222.53-11.28 221.48-10.7 220.81-9.83 220.13-8.95 220.13-7.8L220.13-7.8Q220.13-6.3 221.18-5.43 222.23-4.55 224.08-4.55L224.08-4.55Q225.33-4.55 226.31-4.95 227.28-5.35 227.98-5.9L227.98-5.9Q228.73-6.55 229.18-7.2 229.63-7.85 229.63-8.55L229.63-8.55 229.63-11.8Z" opacity="1" transform="matrix(1,0,0,1,0,0)" fill="#1098ad" class="wordmark-text-0" data-fill-palette-color="primary" id="text-0"></path></svg></g></svg></g></svg></g></svg></g><g><svg viewBox="0 0 87.73739536392742 87.73739536392743" height="87.73739536392743" width="87.73739536392742"><g><svg></svg></g><g id="icon-0"><svg viewBox="0 0 87.73739536392742 87.73739536392743" height="87.73739536392743" width="87.73739536392742"><g><path transform="scale(0.87737,0.87737)" d="M30 100c-16.569 0-30-13.431-30-30v-40c0-16.569 13.431-30 30-30h40c16.569 0 30 13.431 30 30v40c0 16.569-13.431 30-30 30z" fill="#1098ad" fill-rule="nonzero" stroke="none" stroke-width="1" stroke-linecap="butt" stroke-linejoin="miter" stroke-miterlimit="10" stroke-dasharray="" stroke-dashoffset="0" font-family="none" font-weight="none" font-size="none" text-anchor="none" style="mix-blend-mode: normal" data-fill-palette-color="accent"></path></g><g transform="matrix(1,0,0,1,17.54747907278548,17.54747907278549)"><svg viewBox="0 0 52.642437218356456 52.642437218356456" height="52.642437218356456" width="52.642437218356456"><g><svg xmlns="http://www.w3.org/2000/svg" xmlns:xlink="http://www.w3.org/1999/xlink" version="1.1" x="0" y="0" viewBox="16 16 68 68" enable-background="new 0 0 100 100" xml:space="preserve" height="52.642437218356456" width="52.642437218356456" class="icon-z$-0" data-fill-palette-color="quaternary" id="z$-0"><path fill="#ffffff" d="M84 23.059C84 19.16 80.84 16 76.941 16H61.059C57.16 16 54 19.16 54 23.059v15.882C54 42.84 57.16 46 61.059 46h15.882C80.84 46 84 42.84 84 38.941V23.059zM80 38.94c0 1.69-1.37 3.06-3.059 3.06H61.059C59.37 42 58 40.63 58 38.94V23.06c0-1.69 1.37-3.06 3.059-3.06h15.882C78.63 20 80 21.37 80 23.06V38.94z" data-fill-palette-color="quaternary"></path><path fill="#ffffff" d="M46 23.059C46 19.16 42.84 16 38.941 16H23.059C19.16 16 16 19.16 16 23.059v15.882C16 42.84 19.16 46 23.059 46h15.882C42.84 46 46 42.84 46 38.941V23.059zM42 38.94c0 1.69-1.37 3.06-3.059 3.06H23.059C21.37 42 20 40.63 20 38.94V23.06c0-1.69 1.37-3.06 3.059-3.06h15.882C40.63 20 42 21.37 42 23.06V38.94z" data-fill-palette-color="quaternary"></path><path fill="#ffffff" d="M84 61.06c0-3.899-3.16-7.06-7.059-7.06H61.059C57.16 54 54 57.161 54 61.06V76.94c0 3.899 3.16 7.06 7.059 7.06h15.882C80.84 84 84 80.839 84 76.94V61.06zM80 76.941C80 78.63 78.63 80 76.941 80H61.059C59.37 80 58 78.63 58 76.941V61.059C58 59.37 59.37 58 61.059 58h15.882C78.63 58 80 59.37 80 61.059V76.941z" data-fill-palette-color="quaternary"></path><path fill="#ffffff" d="M46 61.06c0-3.899-3.16-7.06-7.059-7.06H23.059C19.16 54 16 57.161 16 61.06V76.94c0 3.899 3.16 7.06 7.059 7.06h15.882C42.84 84 46 80.839 46 76.94V61.06zM42 76.941C42 78.63 40.63 80 38.941 80H23.059C21.37 80 20 78.63 20 76.941V61.059C20 59.37 21.37 58 23.059 58h15.882C40.63 58 42 59.37 42 61.059V76.941z" data-fill-palette-color="quaternary"></path></svg></g></svg></g></svg></g></svg></g></svg></g><defs></defs></svg><rect width="395.52" height="69.64827243067703" fill="none" stroke="none" visibility="hidden"></rect></g></svg></g></svg>